<svg xmlns="http://www.w3.org/2000/svg" viewBox="0 0 798.07 218.96"><g style="isolation:isolate"><path d="M0 143.52V90.47h30v5.85H6.9v18.28h20.17v5.3H6.9v23.62ZM49.08 143.52h-6.39l21.72-53.05h7l20.07 53.05H84l-5.5-14.59H55.07Zm8.08-19.89h19.33L67.16 99ZM105.44 143.52V90.47h6.9v47.21h27.83v5.84ZM154.19 143.52V90.47h6.91v47.21h27.82v5.84ZM203 143.52V90.47h30v5.85h-23.15V113H230v5.3h-20.15v19.35h24.92v5.84ZM257.51 143.52h-6.35V90.47H258l24.24 37.7 2.22 4.21-.14-4.17V90.47h6.36v53.05h-6.78l-24.31-37.86-2.21-4.28.13 4.27ZM354 143.52V95.77h-18v-5.3h42.73v5.3H360.9v47.75ZM399.54 143.52h-6.9V90.47h6.9ZM423.34 143.52h-5.84V90.47h6.81l16.45 37.9 15.17-37.9h6.69v53.05h-6.12V111.9l.13-9.46h-.13l-3.43 9.56-9.41 23.61h-6.93l-10.22-23.73-3.17-8.64h-.13l.13 8.62ZM504.43 115.58q6.29 1.55 9.11 5.19a13.1 13.1 0 0 1 2.82 8.23 14 14 0 0 1-2 7.16 14.33 14.33 0 0 1-5.53 5.36q-3.6 2-12.41 2h-15.9V90.47h14.09q9.63 0 12.93 1.38a10.42 10.42 0 0 1 5 4.08 11.16 11.16 0 0 1 1.67 6 14.2 14.2 0 0 1-2.12 7.25q-2.09 3.57-7.66 6.4Zm-16.95-2.07h6.63c3.42 0 6-.46 7.67-1.37a10.33 10.33 0 0 0 4.07-3.91 10.16 10.16 0 0 0 1.52-5.25 6.59 6.59 0 0 0-2.37-5.09c-1.59-1.41-4.44-2.12-8.57-2.12h-8.95Zm0 24.71h9.74q6.9 0 9.45-2.59a8.43 8.43 0 0 0 2.55-6.12 9.14 9.14 0 0 0-1.64-5.25 11.93 11.93 0 0 0-4.87-3.93c-2.16-1-5.52-1.52-10.1-1.52h-5.13ZM533 143.52V90.47h30v5.85h-23.08V113h20.17v5.3h-20.17v19.35h24.92v5.84ZM588.13 143.52h-6.9V90.47h16.4q6.06 0 9.1 1.75a12.54 12.54 0 0 1 4.82 5 14.89 14.89 0 0 1 1.77 7.16 15.21 15.21 0 0 1-1.19 6 17 17 0 0 1-3.35 5.16 18.44 18.44 0 0 1-6.74 4.12 11.88 11.88 0 0 1 2.58 1.81 17.69 17.69 0 0 1 2.09 2.77c.83 1.28 1.55 2.47 2.16 3.59l8.44 15.69h-7.92l-7.32-14a31.14 31.14 0 0 0-7-8.85h-7Zm0-28.1h6.75a13 13 0 0 0 6.49-1.31 9.36 9.36 0 0 0 3.51-3.84 11.53 11.53 0 0 0 1.3-5.39 9.44 9.44 0 0 0-1-4.47 8.94 8.94 0 0 0-3-3.3c-1.33-.89-3.57-1.34-6.75-1.34h-7.26ZM630.26 131.62h6.9v.38q0 4.41 3.11 6.13a17 17 0 0 0 8.27 1.73 11.18 11.18 0 0 0 7.57-2.64 8.7 8.7 0 0 0 3.06-6.94 7.12 7.12 0 0 0-2.63-5.71 31.17 31.17 0 0 0-8-4.38l-2.75-1.19a34.17 34.17 0 0 1-8.41-4.6 15.32 15.32 0 0 1-4.15-5 13.83 13.83 0 0 1-1.37-6.19A13.63 13.63 0 0 1 636.11 93q4.26-4.14 13.3-4.14 8.3 0 11.68 3.08a9.44 9.44 0 0 1 3.38 7.17v.35h-6.9v-.35a4 4 0 0 0-1-2.56 6 6 0 0 0-3.13-1.83 17.66 17.66 0 0 0-4.57-.56c-3.39 0-5.89.85-7.52 2.55a8.14 8.14 0 0 0-2.44 5.79 7.94 7.94 0 0 0 1.16 4.13 9.54 9.54 0 0 0 3.19 3.19 59 59 0 0 0 6.85 3.39l3.24 1.4q7.79 3.39 10.41 7.11a13.78 13.78 0 0 1 2.6 8 15.5 15.5 0 0 1-2.12 7.73 14.05 14.05 0 0 1-5.88 5.68 22.17 22.17 0 0 1-10 1.93 30 30 0 0 1-9.92-1.42 11.45 11.45 0 0 1-6.06-4.65 13 13 0 0 1-2.06-7.09Z"/></g><g style="isolation:isolate"><path d="M490.13 208.63v-34.1h9.42c4.59 0 7.94.62 10.07 1.86a12.51 12.51 0 0 1 5 5.71 21.87 21.87 0 0 1 1.79 9.35 22.85 22.85 0 0 1-1.61 9 13.48 13.48 0 0 1-4.89 6q-3.27 2.22-9.71 2.22Zm4.43-3.76h5.24q4.68 0 7.07-1.37a8.88 8.88 0 0 0 3.66-4.31 18.81 18.81 0 0 0 1.26-7.38 22.55 22.55 0 0 0-1.15-7.64 9 9 0 0 0-3.52-4.72q-2.37-1.51-7.43-1.52h-5.13ZM526.65 208.63v-34.1h19.27v3.76h-14.83V189h13v3.41h-13v12.43h16v3.76ZM556.72 201h4.44v.22a4.12 4.12 0 0 0 2 4 10.91 10.91 0 0 0 5.31 1.11 7.19 7.19 0 0 0 4.87-1.7 5.6 5.6 0 0 0 2-4.46 4.6 4.6 0 0 0-1.69-3.67 20.12 20.12 0 0 0-5.14-2.82l-1.78-.72a22.58 22.58 0 0 1-5.41-3 9.78 9.78 0 0 1-2.66-3.24 9.27 9.27 0 0 1 1.85-10.51c1.82-1.78 4.67-2.66 8.55-2.66q5.34 0 7.51 2a6.07 6.07 0 0 1 2.17 4.62v.22h-4.44v-.22a2.56 2.56 0 0 0-.67-1.65 3.75 3.75 0 0 0-2-1.17 10.86 10.86 0 0 0-2.94-.37 6.44 6.44 0 0 0-4.84 1.64 5.28 5.28 0 0 0-1.57 3.73 5 5 0 0 0 .75 2.65 6.09 6.09 0 0 0 2 2.05 37.74 37.74 0 0 0 4.4 2.18l2.09.9q5 2.18 6.69 4.57a8.89 8.89 0 0 1 1.67 5.16 10.09 10.09 0 0 1-1.36 5 9 9 0 0 1-3.78 3.64 14.14 14.14 0 0 1-6.44 1.24 19.11 19.11 0 0 1-6.38-.91 7.29 7.29 0 0 1-3.89-3 8.29 8.29 0 0 1-1.33-4.56ZM594.25 208.63h-4.43v-34.1h4.43ZM630.1 207.07a24 24 0 0 1-10.35 2.59 15.15 15.15 0 0 1-8.28-2 14.31 14.31 0 0 1-5.06-5.86 22.11 22.11 0 0 1-1.89-9.8q0-6.74 1.79-10.48a14.09 14.09 0 0 1 5.05-5.85 13.71 13.71 0 0 1 7.71-2.12 15.45 15.45 0 0 1 5.56 1 8.93 8.93 0 0 1 4 2.94 6.52 6.52 0 0 1 1.48 3.9v.22H626v-.22a3.25 3.25 0 0 0-.91-2.21 6.1 6.1 0 0 0-2.4-1.6 9.18 9.18 0 0 0-3.38-.59 8.6 8.6 0 0 0-7.59 3.89q-2.61 3.88-2.62 10.72c0 4.55.9 8.13 2.69 10.77a8.62 8.62 0 0 0 7.57 4A20 20 0 0 0 626 205v-9.73h-7.69v-3.41h11.79ZM645.13 208.63h-4.08v-34.1h4.39L661 198.76l1.42 2.71-.09-2.68v-24.26h4.09v34.1h-4.32l-15.63-24.34-1.42-2.75.08 2.74Z"/></g><path style="fill:none;stroke:#000;stroke-miterlimit:10;stroke-width:8px" d="m752.93 3.06 40.25 40.16M755.98 5.78v213.18M718.35 42.86l40.33-40.02M755.98 35.64l39.2 41.14M755.98 62.85l39.2 41.18M716.6 75.88l39.38-39.34M718.83 130.95l39.38-39.34M755.98 92.8l39.2 41.18M718.31 101.28l39.33-39.33"/></svg>
